<svg xmlns="http://www.w3.org/2000/svg" height="24px" viewBox="0 -960 960 960" width="24px" fill="#1f1f1f">
  <g transform="translate(126.80115,-23.054755)">
    <path style="stroke-width:4.78997" d="m 601.40625,-332.8125 -3.75,-9.0625 c -2.05825,-5.00024 -6.18365,-15.24572 -9.21875,-22.73438 l -5.54688,-13.59374 2.89063,-4.76563 c 5.51644,-9.15158 11.81065,-23.85306 14.29687,-33.28125 l 2.5,-9.45312 0.0781,-15.85938 v -15.85938 l -2.65625,-10.15624 c -9.33453,-36.05855 -37.66865,-65.80586 -73.59375,-77.26563 l -10.78125,-3.4375 -14.6875,-0.70313 -14.60938,-0.625 -10.70312,2.10938 c -73.18867,14.69797 -110.77418,95.70325 -73.98438,159.53125 l 5.70313,9.92187 -3.98437,10.39063 c -2.19003,5.7081 -6.169,15.80012 -8.90626,22.42187 l -5,12.03126 c 0,0 -17.73434,42.56016 -17.73434,42.7344 -5.4e-4,0.17425 -1.1066,3.36452 -2.5,7.03125 -6.19217,16.29174 0.35244,28.92455 14.76563,28.51562 4.18398,-0.1187 33.88702,-9.89648 36.79687,-12.10937 2.26027,-1.71956 3.12306,-0.86877 13.82813,13.98437 11.37535,15.78208 15.39089,20.41136 18.90624,21.875 13.36722,5.56544 17.01519,1.67955 31.01563,-33.28125 5.79631,-14.47307 10.78991,-26.08509 11.09375,-25.78125 0.79771,0.7977 13.85013,32.73819 17.65625,43.20313 4.52107,12.42952 9.46975,17.10937 18.04687,17.10937 6.87069,0 10.00433,-2.69639 22.42188,-19.29687 14.8493,-19.8512 11.69878,-18.67188 31.5625,-11.64063 l 16.48438,5.78125 6.71874,-0.54687 6.79688,-0.54688 3.82812,-3.82812 3.90626,-3.90625 0.625,-6.17188 0.54687,-6.09375 -2.65625,-6.71875 c -1.45929,-3.68525 -2.65625,-6.91796 -2.65625,-7.1875 0,-0.26899 -17.5,-42.7344 -17.5,-42.7344 z M 491.5625,-513.35938 c 1.94314,-0.0853 3.89621,-0.0709 5.85938,0 10.47021,0.37789 21.19668,2.99967 31.48437,8.125 l 9.53125,4.6875 8.20312,8.28126 8.28126,8.20312 4.6875,9.53125 c 2.60815,5.22784 5.73861,13.20405 6.875,17.73437 l 2.03124,8.28126 -0.78124,10.70312 c -2.32452,33.16937 -26.31026,61.41706 -57.10938,67.10938 -46.42329,8.57929 -87.15425,-24.84925 -87.34375,-71.64063 v -11.48437 L 426.25,-463.125 c 9.73533,-30.27684 36.16546,-48.95476 65.3125,-50.23438 z m -56.5625,161.875 7.34375,4.45313 c 6.89513,4.15788 25.15578,10.625 29.92187,10.625 0.2512,0 0.50849,0.0196 0.70313,0.0781 l 0.0781,0.0781 c 0.034,0.0177 0.20288,0.0572 0.23437,0.0781 l 0.0781,0.0781 0.0781,0.0781 0.0781,0.0781 c 1.08306,1.85883 -1.50606,9.3037 -11.71874,35 -6.771,17.03663 -5.98927,16.69476 -14.45313,6.40625 l -7.26563,-8.82813 -4.92187,-1.48437 -4.92187,-1.48437 -5.625,1.40624 c -3.09717,0.77975 -6.56913,1.81859 -7.73438,2.26563 l -2.10938,0.78125 2.42188,-6.17188 c 1.34767,-3.39665 5.371,-13.31799 8.98438,-22.03124 3.61337,-8.71272 7.11907,-17.05824 7.73437,-18.59376 z m 121.17188,1.40626 c -1.44437,0 19.78829,46.93047 19.375,47.34374 h -0.0781 -0.0781 c -0.68398,0.046 -2.89643,-0.46765 -5.3125,-1.32812 -10.94353,-3.89815 -16.42215,-1.83164 -26.09374,9.84375 -3.60193,4.34846 -6.96178,8.0169 -7.42188,8.20312 -0.87558,0.35394 -20.93599,-49.02022 -20.15625,-49.60937 0.24557,-0.18568 3.86451,-1.08247 8.04687,-1.95312 4.18239,-0.87068 12.93807,-4.13577 19.45313,-7.26563 6.51561,-3.12984 12.57638,-5.23437 12.26563,-5.23437 z"/>
    <path style="stroke-width:4.95697" d="M 756.85152,16.050061 C 741.29847,13.418391 729.68687,5.1842824 711.63399,-16.015033 L 697.65651,-32.428619 590.56728,-161.93316 c -64.40319,16.09105 -99.71258,17.54253 -139.29132,11.38803 -29.56611,-4.5975 -68.57808,-19.56905 -99.36146,-42.52825 -25.25847,-18.83854 -50.17798,-40.75518 -64.69364,-67.29807 -17.31098,-31.65423 -25.88157,-71.72383 -28.8636,-105.65162 l -1.59411,-18.13721 1.53241,-15.32651 c 17.36102,-173.64052 200.72347,-270.43329 350.89453,-185.22931 58.60339,33.25037 100.58095,91.48187 113.9704,158.10024 l 2.9073,14.46486 0.0103,28.19802 0.0103,28.19803 -2.98721,16.39418 c -5.46118,29.97246 -18.07076,61.11481 -34.56893,85.37614 l -8.55869,12.58601 11.28396,13.13243 c 6.20616,7.22277 14.22019,16.60897 17.8089,20.85815 3.5887,4.24909 11.28889,13.3325 17.11151,20.18526 5.82259,6.85275 20.86615,24.55851 33.4301,39.34607 12.56397,14.78756 27.01206,31.60793 32.10696,37.37872 30.91062,35.011098 33.59044,39.398828 36.08603,59.082248 5.21652,41.143404 -29.78719,74.430115 -70.94575,67.465803 z m 20.70386,-40.768541 5.67879,-2.748925 3.2603,-5.563392 c 6.87138,-11.725035 4.91227,-17.883195 -12.01379,-37.762345 -6.38682,-7.50113 -21.04393,-24.70523 -32.57136,-38.231328 -11.52743,-13.52621 -21.39624,-25.29311 -21.93085,-26.14862 l -0.97193,-1.55557 -1.88558,1.31149 c -1.03704,0.7214 -8.28374,6.8616 -16.10356,13.64501 -7.81994,6.78339 -14.62988,12.68531 -15.13334,13.11532 -0.50337,0.42985 4.80837,7.59092 11.80385,15.913018 39.34189,46.802789 55.7188,65.63665 58.25354,66.993159 8.09829,4.334097 14.1921,4.625061 21.61393,1.032183 z M 673.60153,-152.79494 c 7.85439,-7.03317 14.86236,-13.73011 15.57338,-14.8822 l 1.29269,-2.09476 -10.29807,-12.33214 c -5.66389,-6.78272 -13.75604,-16.289 -17.98241,-21.1252 l -7.68444,-8.79297 -9.42664,7.96178 c -5.1846,4.37904 -13.05142,10.41151 -17.48177,13.40553 l -8.05514,5.44365 2.80901,3.36523 c 24.85202,29.7729 35.24038,41.83851 36.02237,41.83851 0.52268,0 7.37663,-5.75436 15.23102,-12.78743 z m -147.85622,-41.53385 c 48.17844,-8.64371 97.44328,-40.46524 123.92882,-80.04917 77.77612,-116.24021 13.53802,-268.8208 -124.31135,-295.26864 l -11.68606,-2.24215 -20.32882,0.0817 -20.32874,0.0817 -13.77112,2.64629 c -78.01134,14.99052 -136.18335,71.72094 -153.68002,149.87132 l -3.04806,13.61446 0.10705,24.26338 0.10704,24.26337 2.86859,13.44348 c 21.41301,100.3511 120.05919,167.25004 220.14264,149.29426 z"/>
  </g>
  <path style="stroke-width:3.55831" d="m 345.07986,-455.47402 c 1.53843,1.55717 3.51641,4.74709 4.40397,7.09039 l 1.60605,4.26331 v 7.1811 7.18111 l -1.58915,4.21795 c -0.87065,2.31307 -2.69647,5.38205 -4.04894,6.80315 l -2.4598,2.5852 -71.80659,-0.11641 -71.80576,-0.11641 -2.22311,-2.05607 c -2.91625,-2.70614 -4.97876,-7.5137 -5.93394,-13.87842 l -0.76076,-5.14016 0.76076,-4.71685 c 1.0228,-6.0926 3.95596,-12.2759 6.85531,-14.43779 l 2.29919,-1.72347 70.94863,0.0212 70.94862,0.0212 z"/>
  <path style="stroke-width:3.61033" d="m 349.63377,-352.40569 c 1.58376,1.55717 3.61999,4.74709 4.53368,7.09039 l 1.65336,4.26331 v 7.1811 7.18111 l -1.63595,4.21795 c -0.8963,2.31307 -2.7759,5.38205 -4.1682,6.80315 l -2.53224,2.5852 -73.9215,-0.11641 -73.92062,-0.11641 -2.2886,-2.05607 c -3.00214,-2.70614 -5.12539,-7.5137 -6.10871,-13.87842 l -0.78316,-5.14016 0.78316,-4.71685 c 1.05293,-6.0926 4.07248,-12.2759 7.05723,-14.43779 l 2.3669,-1.72347 73.03826,0.0212 73.03824,0.0212 z"/>
  <path style="stroke-width:4.07151" d="m 392.89598,-250.90362 c 2.01421,1.55717 4.60388,4.74709 5.76592,7.09039 l 2.10273,4.26331 v 7.1811 7.18111 l -2.0806,4.21795 c -1.1399,2.31307 -3.53037,5.38205 -5.30109,6.80315 l -3.2205,2.5852 -94.01302,-0.11641 -94.01191,-0.11641 -2.91063,-2.05607 c -3.8181,-2.70614 -6.51845,-7.5137 -7.76903,-13.87842 l -0.99602,-5.14016 0.99602,-4.71685 c 1.33911,-6.0926 5.17936,-12.2759 8.97535,-14.43779 l 3.01021,-1.72347 92.88973,0.0212 92.88971,0.0212 z"/>
  <path style="stroke-width:3.61478" d="m 381.91344,-562.6977 c 10.61715,7.31716 10.18622,33.68768 -0.61064,39.96623 l -2.46869,1.36063 h -89.27448 -89.27447 l -2.34657,-1.69322 c -9.96901,-7.22646 -9.96901,-32.18797 0,-39.40687 l 2.34657,-1.70835 89.92785,0.0801 c 57.77369,0.0529 90.57686,0.45354 91.74404,1.36063 z"/>
  <path style="stroke-width:4.32878" d="m 464.16463,-666.94161 c 13.7095,4.21796 16.34907,28.42507 4.10322,37.62747 l -3.82801,2.87244 -130.29725,0.30236 -130.2985,0.30236 -4.61612,-2.90267 -4.61613,-2.90268 -2.33933,-5.56347 c -5.05396,-12.00377 1.12589,-29.98677 10.45821,-30.28459 21.98601,-0.75591 259.03202,-0.30237 261.45892,0.45354 z"/>
  <path style="stroke-width:5.02875" d="m 564.28254,-768.27981 c 14.02946,6.68221 16.44367,23.91836 4.72713,33.81317 -6.85434,5.79023 2.26228,5.54834 -189.87714,5.15527 l -176.01314,-0.30236 -4.47389,-3.77953 c -11.59836,-9.7663 -10.75423,-25.55565 1.80644,-33.5743 l 4.60895,-2.93291 177.15947,-0.30236 177.16115,-0.30236 z"/>
  <path style="stroke-width:4.75871" d="m 395.00507,-885.21778 c 0.15118,0 68.736,0.30236 152.74734,0.30236 h 152.75036 l 6.45543,1.92 6.45543,1.92 6.80315,6.21354 6.80315,6.21355 3.55276,7.90677 3.55275,7.90677 0.60473,18.59074 c 0.85069,26.20455 -0.41771,69.60885 -0.41771,106.05555 0,22.24727 -1.38696,103.25772 -1.38696,127.68467 0,59.09329 -40.20019,28.42538 -40.20019,-12.73469 0,-14.04762 1.67309,-96.15599 0.78722,-121.01517 -0.89621,-25.14921 -1.3988,-56.4448 -1.3988,-94.8502 v -13.50047 H 534.75537 377.3955 c -81.25833,0 -112.60876,-0.45355 -210.59225,-0.30237 l -26.93745,0.15118 -26.93745,0.15119 0.30236,360.09675 0.30237,360.09523 289.27294,0.30237 289.27445,0.30236 v -69.65065 l 42.29745,6.45544 -0.45355,72.53518 -2.40378,6.28913 c -1.5874,4.15748 -5.00409,8.889451 -10.05354,13.923781 l -7.64976,7.619528 -6.93922,2.16189 -6.93921,2.161889 -297.20087,-0.01512 -297.20088,-0.01512 -6.425201,-1.904882 c -8.7685,-2.600315 -18.10696,-11.202519 -23.02942,-21.203146 l -3.85511,-7.83118 -0.30237,-370.75804 -0.30236,-370.75804 3.31087,-7.07528 c 4.29354,-9.16157 10.62803,-16.08718 18.9566,-20.70274 l 6.682201,-3.70394 24.23735,-0.45354 c 13.33418,-0.15118 24.23736,-0.60472 24.23736,-0.90709 0,-0.30236 43.65203,0.0408 122.54135,0.0408 64.93228,0 63.86797,0.45355 123.41669,0.45355 z"/>
</svg>
