<svg xmlns="http://www.w3.org/2000/svg" viewBox="0 0 200 200" width="200" height="200" fill="#1f1f1f">
  <path d="M 2.0739284,139.0164 2.2268147,114.16075 8.8527723,111.64228 15.478747,109.1238 32.52969,84.918216 49.580648,60.71263 60.625157,52.749746 c 6.07447,-4.379584 11.401778,-8.052884 11.838451,-8.162893 0.653281,-0.164572 0.793955,2.63802 0.793955,15.818229 v 16.018239 l -2.058646,2.544973 -2.058631,2.54497 0.158636,12.127183 0.158636,12.127173 5.261537,-4.52209 C 102.97447,76.960987 103.39753,76.638681 107.00033,76.65207 c 2.46424,0.0092 7.31369,2.651134 9.19459,5.009205 3.93548,4.933894 4.851,10.538268 2.51648,15.404671 -1.01888,2.123931 -4.47799,5.567444 -15.34614,15.277024 -14.775298,13.2002 -18.639081,17.0384 -35.711855,35.47548 -11.609443,12.53715 -13.94288,14.27364 -20.703526,15.40716 -2.090002,0.3504 -13.076453,0.63921 -24.41432,0.64178 l -20.6143291,0.006 z m 73.6965776,20.13918 c -1.029392,-0.5371 -2.285016,-1.64422 -2.790317,-2.46026 -0.907287,-1.46527 -0.807843,-1.60398 8.010064,-11.1728 10.246849,-11.11949 9.221989,-10.1025 20.328757,-20.17228 4.66231,-4.227 8.55617,-7.47654 8.65303,-7.2212 0.13986,0.36858 -4.25289,20.149 -5.52956,24.89989 -0.42044,1.5646 -2.69374,2.32679 -7.045232,2.36213 -2.459652,0.02 -4.208891,-0.30337 -5.142272,-0.95051 -1.39209,-0.96518 -1.423783,-0.94393 -1.995295,1.3379 -0.319402,1.27529 -0.867323,3.71059 -1.217591,5.41182 -1.525728,7.41017 -1.634965,7.63966 -3.962498,8.32367 -3.139621,0.92268 -7.149828,0.76832 -9.309086,-0.35836 z m 47.992654,-54.20749 c 0.52577,-0.76556 1.53106,-2.57502 2.23395,-4.02105 l 1.27797,-2.629154 h 31.45789 31.45792 l -0.15136,-32.632444 c -0.0833,-17.947839 -0.34865,-32.562842 -0.58978,-32.47778 -0.24116,0.08506 -22.93156,0.154657 -50.42308,0.154657 H 89.042056 l -0.0085,22.115821 c -0.0052,12.163702 -0.202236,22.394203 -0.438463,22.734447 -0.603275,0.868906 -6.414084,5.876932 -6.819012,5.876932 -0.183463,0 -0.333574,-11.984208 -0.333574,-26.631569 0,-22.594643 0.134449,-26.906649 0.886822,-28.446253 1.890929,-3.869391 -0.8784,-3.691498 57.466831,-3.691498 h 53.15018 l 1.61121,1.341116 c 3.23567,2.693231 3.22346,2.544391 3.22248,39.313568 -0.001,31.821604 0.0862,31.030284 -3.63051,32.987414 -1.69778,0.89401 -3.73528,0.95395 -32.42833,0.95395 h -30.61714 z m 20.23277,-21.994706 c 0,-0.954116 0.74928,-2.984987 1.66508,-4.513044 1.31225,-2.18958 2.4581,-3.16307 5.40769,-4.594184 3.30041,-1.601341 4.39881,-1.816554 9.29646,-1.821472 4.8405,-0.005 5.96683,0.207387 8.76923,1.652501 1.76847,0.911945 3.64246,2.027524 4.16446,2.479056 1.59446,1.379249 3.43106,5.033155 3.43335,6.830685 l 0.001,1.701216 h -16.36926 -16.36921 z m -24.9923,-14.204452 -16.51539,-0.164286 v -3.08349 -3.083493 h 16.95385 16.95384 v 3.056612 c 0,1.681136 -0.1973,3.142636 -0.43845,3.247777 -0.24117,0.105147 -7.87038,0.117236 -16.95385,0.02693 z m 36.97691,-0.828702 c -2.52991,-1.550303 -5.02181,-4.649019 -5.61583,-6.983423 -1.83474,-7.210086 3.0619,-14.127514 10.00045,-14.127514 8.20681,0 13.18566,9.759084 8.60885,16.874263 -2.18693,3.399805 -4.13386,4.531585 -8.17669,4.753206 -2.06059,0.112965 -4.15625,-0.111786 -4.81678,-0.516532 z M 102.87798,53.963128 c -0.21436,-0.226825 -0.38974,-1.757921 -0.38974,-3.402434 v -2.990016 h 16.95385 16.95384 v 3.402433 3.402435 h -16.5641 c -9.11026,0 -16.73948,-0.185587 -16.95385,-0.412418 z"/>
  <rect x="159.05498" y="126.86655" width="34.462898" height="22.986677" stroke="#1f1f1f" stroke-width="6.13031"/>
  <path d="m 137.15532,148.70743 18.41006,14.0019 -0.36371,-20.63709 0.38037,-27.17035 -13.94586,10.71701 -18.79042,13.16844 z" stroke="#1f1f1f" stroke-width="4.53216" stroke-miterlimit="3.6"/>
</svg>
