<svg xmlns="http://www.w3.org/2000/svg" height="24px" viewBox="0 -960 960 960" width="24px" fill="#1f1f1f">
  <path style="stroke-width:4.75872" d="m 694.63964,-23.527352 c -3.49162,-1.453932 -7.4856,-6.079491 -18.78651,-21.759005 -10.63517,-14.756298 -11.44384,-15.575477 -13.68964,-13.867236 -2.89049,2.199023 -32.41255,11.903085 -36.56889,12.021313 -14.31912,0.405655 -20.83578,-12.184198 -14.68378,-28.369727 1.38457,-3.642968 2.51745,-6.765207 2.51797,-6.938086 0,-0.173395 -68.7366,-0.314741 -152.74865,-0.314741 h -152.7497 l -6.45256,-1.916332 -6.45256,-1.916324 -6.80095,-6.215579 -6.80094,-6.215587 -3.5468,-7.903344 -3.54681,-7.90385 -0.59691,-18.58948 -0.59639,-18.58895 H 158.29983 43.46313 L 37.930642,-154.93 c -6.422615,-3.39653 -9.653101,-8.24542 -10.730795,-16.10671 l -0.766642,-5.59292 1.924731,-4.60665 c 1.081908,-2.58944 4.255654,-6.29493 7.247046,-8.46189 l 5.321793,-3.85577 H 281.97569 523.02461 l 4.30713,2.04401 c 6.15726,2.92151 9.64786,8.46452 10.30257,16.35787 l 0.5533,6.67167 -3.34819,5.71272 c -1.84119,3.14222 -5.16731,6.70794 -7.39103,7.92384 l -4.04282,2.21005 -103.55943,0.34313 -103.5589,0.34312 v 13.50676 13.50679 h 157.35897 157.35951 l 4.94398,-11.96142 c 2.71922,-6.57868 6.72476,-16.60064 8.90065,-22.27134 l 3.95668,-10.3099 -5.66913,-9.83543 c -36.54944,-63.41114 0.75141,-143.88374 73.46201,-158.48607 l 10.62885,-2.13439 14.55295,0.65366 14.55295,0.65366 10.70242,3.4144 c 35.69034,11.38499 63.88878,40.99163 73.16249,76.81439 l 2.60731,10.07293 -0.0211,15.73837 -0.0211,15.73837 -2.49012,9.44291 c -2.47016,9.36725 -8.75878,23.96748 -14.23872,33.0594 l -2.85111,4.73013 5.48205,13.52675 c 3.01557,7.43935 7.15562,17.5911 9.20016,22.55873 l 3.71809,9.03202 26.93736,-0.21859 26.93785,-0.21807 -0.31679,-360.09659 -0.31634,-360.0961 -289.2729,-0.31737 -289.27343,-0.31737 v 69.65141 69.65145 l 7.2397,2.25576 c 43.60366,13.58349 79.6203,51.91634 91.17817,97.04171 l 2.90207,11.33192 v 20.77483 20.77483 l -3.42175,12.31977 c -6.91443,24.89439 -14.53192,38.95552 -32.88915,60.70664 -20.94455,24.81714 -28.4869,48.31698 -28.4869,88.75584 v 18.69456 l 8.4992,0.81445 c 150.17183,14.39268 177.91838,32.83188 176.37302,117.21227 l -0.41721,22.76577 -3.53525,4.63083 c -1.94417,2.54685 -5.74635,5.75896 -8.44874,7.13722 l -4.913,2.50641 H 282.14277 43.922903 l -5.352261,-3.13642 c -2.943586,-1.72508 -6.66169,-5.25507 -8.261697,-7.8445 l -2.909966,-4.70806 -0.49077,-12.22202 c -1.730836,-43.09451 5.116867,-68.25109 23.620169,-86.77121 l 8.282181,-8.28954 9.442923,-4.58669 c 20.726487,-10.06715 78.413858,-21.95237 123.389498,-25.42088 5.19409,-0.40041 11.85106,-1.02358 14.79411,-1.3851 l 5.35122,-0.65682 v -22.50356 c 0,-39.95019 -6.74419,-59.43663 -30.07062,-86.88155 -16.69784,-19.64616 -25.6111,-36.127 -31.18195,-57.65848 l -3.16218,-12.22046 -0.67364,-15.73838 -0.67363,-15.73836 2.02405,-11.59044 c 10.42025,-59.67411 60.22532,-107.98899 116.73411,-113.24089 l 8.60271,-0.79974 0.38358,-72.53566 0.38358,-72.5351 2.39816,-6.29548 c 1.58373,-4.15687 4.99812,-8.88482 10.05191,-13.91923 l 7.65377,-7.62379 6.93649,-2.15597 6.93703,-2.15588 297.20093,0.0155 297.2009,0.0155 6.4174,1.90578 c 8.76241,2.60207 18.1071,11.20633 23.02898,21.20411 l 3.85366,7.82771 0.26959,370.75805 0.27012,370.75804 -3.31095,7.07575 c -4.28765,9.164488 -10.62675,16.087324 -18.95565,20.701853 l -6.67802,3.699189 -24.23703,0.41091 c -13.33022,0.22647 -24.23704,0.630015 -24.23704,0.897998 0,0.267455 1.18648,3.482177 2.63672,7.143532 l 2.63672,6.65644 -0.57484,6.097875 -0.57432,6.097359 -3.86418,3.864183 -3.86419,3.864708 -6.6969,0.535964 -6.69689,0.536481 -16.36365,-5.792062 c -19.73392,-6.984853 -16.61429,-8.137166 -31.36639,11.584131 -12.33658,16.492395 -15.44518,19.168 -22.27028,19.168 -8.52128,0 -13.42058,-4.649207 -17.91163,-16.997875 -3.78116,-10.395995 -16.75355,-42.13073 -17.54593,-42.923114 -0.30214,-0.302135 -5.26084,11.215274 -11.01875,25.59429 -13.90927,34.732439 -17.55539,38.648119 -30.83516,33.119302 z m 8.21021,-69.300418 c 12.48686,-31.41998 13.62132,-35.25422 10.42656,-35.25422 -4.73485,0 -22.85721,-6.46096 -29.70701,-10.59207 l -7.29381,-4.39805 -1.11185,2.77387 c -0.61164,1.52539 -4.04967,9.85539 -7.63904,18.5117 -3.58989,8.65632 -7.62222,18.49963 -8.96107,21.874617 l -2.43338,6.135709 2.10444,-0.807616 c 1.15757,-0.444013 4.62188,-1.441318 7.69894,-2.215839 l 5.59397,-1.408734 4.90195,1.46864 4.90248,1.46864 7.22025,8.776642 c 8.4083,10.221106 7.5702,10.592601 14.29757,-6.333289 z m 81.67011,6.625439 c 9.60843,-11.599373 15.03478,-13.646539 25.90692,-9.774481 2.7434,0.976823 5.19831,1.566379 5.45526,1.309434 0.41038,-0.410379 -18.25055,-46.008132 -19.25102,-47.036972 -0.21491,-0.22121 -5.68697,2.14175 -12.15951,5.25085 -6.47305,3.10964 -15.16825,6.36113 -19.32354,7.22655 -4.15475,0.86489 -7.7541,1.7235 -7.99843,1.90792 -0.77505,0.58483 19.16274,49.658987 20.03237,49.306931 0.45714,-0.184958 3.75961,-3.870481 7.33795,-8.190232 z M 751.38173,-162.1986 c 30.59819,-5.65492 54.4653,-33.6563 56.77468,-66.60957 l 0.74982,-10.7019 -2.05347,-8.18392 c -1.1292,-4.50155 -4.17316,-12.43379 -6.76363,-17.62738 l -4.71122,-9.44291 -8.18971,-8.19023 -8.19022,-8.18972 -9.44292,-4.70489 c -40.88235,-20.36814 -88.21987,-0.95055 -101.97571,41.82867 l -2.98562,9.28632 0.0474,11.42546 c 0.18759,46.48578 40.62172,79.63344 86.74176,71.11007 z m -255.01914,-98.76465 c 3.33822,-1.90163 -2.52059,-32.59754 -7.65111,-40.08471 -11.02454,-16.08937 -71.09957,-27.42181 -172.0396,-32.45408 l -30.46261,-1.51908 -34.37987,1.53064 c -96.74376,4.30557 -162.742233,15.97429 -174.025814,30.7679 -5.949706,7.80034 -11.814806,33.47293 -9.202261,40.28069 l 0.769791,2.00618 213.167344,-0.0767 c 117.24168,-0.042 213.46263,-0.24487 213.82413,-0.45084 z m -206.83088,-115.1462 21.71906,-0.0107 v -8.81343 -8.81341 h -28.22575 -28.22628 l -0.41774,8.92376 c -0.50128,10.69927 -0.72565,10.40187 7.13618,9.47076 3.46273,-0.41037 16.06887,-0.75034 28.01453,-0.75665 z m 28.12592,-72.13785 c 6.84455,-24.25386 15.5203,-40.37213 31.99902,-59.44659 13.4248,-15.53922 17.64682,-22.23508 22.28236,-35.33882 l 3.97822,-11.24681 0.0211,-19.51583 0.0211,-19.51585 -3.47587,-10.07242 c -30.29341,-87.78794 -150.94371,-87.05232 -180.48679,1.10031 l -3.42858,10.23162 0.0369,18.25634 0.0369,18.25686 3.35448,10.0724 c 4.49211,13.48891 10.10237,22.51199 24.2113,38.93922 l 11.81587,13.75793 7.46722,14.57135 c 6.9449,13.55247 10.67404,23.1835 14.03115,36.24049 l 1.36303,5.30077 10.35196,0.43559 c 5.6938,0.24014 19.9814,0.24224 31.74944,0 l 21.39749,-0.43033 z m 159.79129,47.14521 c -12.56673,-6.68428 -14.72267,-23.91757 -4.23041,-33.81289 6.14253,-5.79313 -2.02353,-5.54563 170.03131,-5.15049 l 157.61697,0.36202 4.01499,3.7775 c 10.38401,9.76973 9.62366,25.55592 -1.61787,33.57433 l -4.1206,2.93887 -158.6437,0.32735 -158.64371,0.32735 z m 3.47325,-101.33833 c -16.56754,-4.21886 -19.75704,-28.42438 -4.95765,-37.62716 l 4.63238,-2.88053 157.46513,-0.33314 157.46564,-0.33367 5.58505,2.90681 5.58502,2.90733 2.83325,5.56245 c 6.11312,12.00502 -1.38929,29.9876 -12.63504,30.28448 -26.57006,0.70148 -313.04018,0.26062 -315.97378,-0.48604 z m -0.95476,-104.24304 c -18.40084,-7.31588 -17.65416,-33.68836 1.13183,-39.96699 l 4.27981,-1.43029 h 154.71911 154.71909 l 4.07122,1.70089 c 17.27741,7.21867 17.27741,32.18766 0,39.40634 l -4.07122,1.70141 -155.85091,-0.0798 c -100.12613,-0.0525 -156.97698,-0.52754 -158.99893,-1.33149 z m 27.10707,-107.22393 c -2.74917,-1.55745 -6.29072,-4.74798 -7.86918,-7.09046 l -2.87002,-4.25933 v -7.18189 -7.18189 l 2.83692,-4.21048 c 1.56059,-2.31514 4.8184,-5.3738 7.23969,-6.79621 l 4.40277,-2.58627 128.42595,0.11716 128.42597,0.11666 3.98083,2.06136 c 5.21512,2.70029 8.9038,7.52186 10.61414,13.87303 l 1.38301,5.13682 -1.41243,4.71438 c -1.82699,6.09787 -7.06997,12.27248 -12.26301,14.44259 l -4.11063,1.71718 -126.89215,-0.0211 -126.8927,-0.0211 z"/>
</svg>
