<svg xmlns="http://www.w3.org/2000/svg" height="24px" viewBox="0 -960 960 960" width="24px" fill="#1f1f1f">
  <path style="stroke-width:0;stroke-dasharray:none" d="m 192.16553,-35.780705 v -21.553638 h -7.3469 c -4.04083,0 -9.60846,-0.859775 -12.37244,-1.910705 -2.76407,-1.050837 -31.80574,-28.733976 -64.53702,-61.518112 l -59.511491,-59.60731 v -34.22284 c 0,-27.95258 0.532579,-34.98322 2.906523,-38.37267 2.906616,-4.14955 2.906616,-4.14955 85.945948,-4.14955 64.73694,0 83.22512,-0.51449 83.88253,-2.3339 0.46381,-1.28363 3.42544,-21.65859 6.58144,-45.27763 6.94782,-51.99642 7.79676,-55.77205 16.79237,-74.68456 8.12528,-17.08273 23.14459,-34.05712 39.2511,-44.36029 8.84807,-5.66004 35.28611,-15.92449 97.68171,-37.92441 21.37642,-7.53712 21.71021,-8.08496 21.71021,-35.63065 0,-22.92187 0,-22.92187 -5.75896,-29.48098 l -5.75897,-6.5592 -158.12119,-0.50733 -158.121178,-0.50742 -12.142935,-5.97876 c -21.981641,-10.82284 -37.540312,-30.66249 -42.60494,-54.3276 -2.758704,-12.89022 -2.971434,-262.35964 -0.236094,-276.78325 5.961899,-31.4371 30.173058,-55.70384 61.388568,-61.52961 13.835822,-2.58215 780.111889,-2.58215 793.947709,0 31.21551,5.82577 55.42667,30.09251 61.38857,61.52961 2.72139,14.34974 2.52336,263.86552 -0.21942,276.78325 -4.98445,23.47339 -20.71421,43.53867 -42.57272,54.30706 -12.08735,5.95455 -12.43584,6.00627 -46.7673,6.93284 l -34.58923,0.93355 -55.07997,34.40485 c -30.29384,18.92269 -57.37252,35.27396 -60.17456,36.33629 -4.18469,1.58643 -6.01899,1.24209 -10.26906,-1.92757 -5.17448,-3.859 -5.17448,-3.859 -6.10812,-36.33629 l -0.93364,-32.47757 -39.61419,-0.93354 c -34.00992,-0.80146 -40.0632,-1.38321 -42.78809,-4.11205 -4.16547,-4.17169 -4.04883,-13.54405 0.22724,-18.26914 3.24663,-3.58758 5.66589,-3.75839 53.23456,-3.75839 61.66611,0 56.68571,-2.85593 57.56112,33.0077 0.50385,20.64685 1.08372,24.97908 3.2324,24.15454 1.44012,-0.55255 22.66939,-13.54706 47.17628,-28.87671 l 44.55795,-27.87203 35.29619,-0.71554 c 33.07393,-0.67031 35.86984,-1.0058 44.40579,-5.32578 5.01018,-2.53552 11.89629,-7.86582 15.30232,-11.84513 12.32608,-14.40015 11.99889,-10.08649 11.97873,-157.90168 l -0.0207,-133.63295 -4.42088,-9.33552 c -5.34839,-11.29418 -14.13749,-19.95977 -25.4165,-25.05944 -8.36439,-3.78184 -10.16553,-3.7988 -402.36328,-3.7988 -392.197561,0 -393.998792,0.017 -402.363182,3.7988 -11.279014,5.09967 -20.068109,13.76526 -25.416503,25.05944 l -4.420879,9.33552 -0.0179,133.63295 c -0.02073,147.81519 -0.347358,143.50153 11.978724,157.90168 3.406033,3.97931 10.292148,9.32855 15.302321,11.88724 l 9.109509,4.65217 h 146.56845 c 129.19577,0 146.52656,-0.33172 146.21454,-2.80072 -0.19465,-1.54036 -2.05909,-9.10216 -4.14324,-16.80396 -10.62019,-39.2478 -12.66798,-111.7621 -3.92816,-139.10015 5.64403,-17.65459 9.50106,-24.80648 20.51656,-38.04283 21.38566,-25.69745 52.59825,-39.44245 89.56754,-39.44245 23.32887,0 39.84247,3.64759 57.44224,12.68786 26.78813,13.75988 44.71113,34.50123 54.1257,62.63649 4.92943,14.73178 5.09741,16.57644 5.1269,56.30727 0.049,65.30758 -7.54418,99.10797 -29.50576,131.35246 l -6.80406,9.99001 v 24.81157 c 0,20.96378 0.50667,25.39031 3.26745,28.54311 1.88131,2.14849 19.10885,9.47523 40.60973,17.27096 20.53822,7.44677 42.80363,15.52155 49.47862,17.94421 15.4133,5.59409 35.06716,18.9728 45.92938,31.26478 4.64369,5.25503 11.82563,16.4876 15.95992,24.96136 8.21554,16.83901 9.73988,23.97036 18.05905,84.48389 l 5.00537,36.40874 82.96133,0.48622 c 73.92719,0.43328 83.33073,0.82077 86.35408,3.55677 3.0517,2.76182 3.39265,6.62996 3.39265,38.48752 v 35.41697 l -59.35482,59.41333 c -32.64517,32.677294 -61.68684,60.29995 -64.53703,61.383477 -2.85018,1.083622 -8.48827,1.970248 -12.52911,1.970248 h -7.3469 v 18.671233 18.67114 h -13.04162 -13.04162 l -0.4947,-54.613151 -0.49461,-54.613057 -259.0353,-0.47351 -259.0351,-0.47351 -0.49377,57.420285 -0.49376,57.420375 -13.53661,0.548311 -13.5366,0.548312 z m 0,-81.301225 c 0,-29.11525 0.30496,-32.04599 3.68678,-35.42771 2.02763,-2.02772 5.59853,-4.15106 7.93517,-4.71869 2.33673,-0.56734 127.93833,-0.79891 279.11471,-0.51439 260.80016,0.49112 275.03676,0.68802 278.2001,3.84571 2.86055,2.85537 3.46651,7.89334 4.2675,35.4751 0.93364,32.14708 0.93364,32.14708 5.60135,32.670426 3.90018,0.437518 13.50769,-8.327836 58.41959,-53.296926 l 53.75177,-53.82017 -0.53917,-18.58701 -0.53917,-18.5871 H 478.76733 75.470611 l -0.539079,18.5871 -0.538985,18.58701 53.739713,53.76365 c 44.42011,44.439896 54.63227,53.763643 58.8864,53.763643 h 5.14659 z m 515.56682,-140.89912 c 1.52595,-1.52604 -11.16822,-89.22141 -14.30188,-98.80235 -6.08758,-18.61151 -23.21977,-39.2431 -39.43519,-47.49019 -3.95303,-2.01048 -27.35208,-10.97094 -51.99803,-19.91219 -24.64595,-8.94125 -48.35929,-18.30089 -52.69632,-20.79938 -12.1956,-7.02527 -17.83247,-18.24907 -18.84402,-37.52034 -0.71215,-13.56789 -1.23154,-15.51119 -3.85081,-14.40627 -1.66519,0.70215 -9.32921,3.4293 -17.03101,6.0595 -18.55102,6.33545 -43.84825,6.52227 -60.68122,0.44807 -19.3505,-6.98259 -17.7376,-7.2623 -17.7376,3.07667 0,13.98091 -4.90664,27.96897 -12.74061,36.32178 -7.11289,7.58394 -13.64825,10.39757 -68.47894,29.48286 -46.98229,16.35344 -55.42017,20.69876 -68.66848,35.36308 -8.81341,9.75543 -17.16329,26.40846 -19.76664,39.42266 -1.12978,5.64799 -4.18893,26.65303 -6.79793,46.6778 -2.609,20.02487 -5.08648,37.37686 -5.50554,38.56016 -0.41896,1.1832 -0.25955,2.65356 0.35424,3.26744 1.29607,1.29607 456.88523,1.54536 458.17998,0.25051 z M 510.03833,-520.15434 c 24.53826,-11.71107 44.6727,-41.55693 51.79415,-76.77615 8.05934,-39.85792 8.54886,-96.49634 1.01598,-117.56705 -13.61292,-38.07798 -52.59796,-60.12651 -96.60411,-54.63576 -34.53214,4.30858 -60.71128,24.29698 -71.55749,54.63576 -7.44451,20.82369 -6.95329,78.34477 1.00401,117.56705 6.16239,30.37448 24.64633,60.93814 44.13937,72.98554 20.50431,12.67241 48.43796,14.18054 70.20809,3.79061 z m -92.95021,475.85342 c -13.90017,-5.169674 -10.90377,-26.103211 3.73634,-26.103211 12.3193,0 18.61895,13.922027 9.86499,21.801697 -5.4834,4.935841 -8.94888,6.031804 -13.60133,4.301514 z m 51.546,-4.883082 c -2.12843,-2.705852 -3.86974,-6.373415 -3.86974,-8.150341 0,-6.26234 7.29358,-13.069788 14.00323,-13.069788 6.70976,0 14.00343,6.807448 14.00343,13.069788 0,6.26234 -7.29367,13.069883 -14.00343,13.069883 -4.54307,0 -7.32693,-1.35156 -10.13349,-4.919542 z m 58.07043,0.598338 c -8.19772,-8.726068 -2.36094,-21.818184 9.72707,-21.818184 7.5797,0 12.53259,5.003673 12.75663,12.887771 0.34868,12.259474 -14.00154,17.959371 -22.4837,8.930413 z"/>
  <path style="stroke:#1f1f1f;stroke-width:0;stroke-miterlimit:3.6;stroke-dasharray:none" d="M 11.656998,11.124335 C 11.276706,11.060675 10.978037,10.897455 10.690721,10.59627 10.033137,9.9069445 9.7686356,8.9808673 9.7697207,7.3716429 9.7703625,6.41984 9.8343807,6.1251859 10.139579,5.669309 c 0.499569,-0.7462093 1.643724,-1.0931571 2.572589,-0.7800995 0.390459,0.1315972 0.6004,0.2602776 0.872683,0.5348997 0.278004,0.2803916 0.469304,0.637433 0.54207,1.0117139 0.02835,0.1458386 0.04495,0.5190175 0.04355,0.9789702 -0.0048,1.5673586 -0.272352,2.4979235 -0.908518,3.1596487 -0.432862,0.450255 -1.012926,0.648996 -1.604958,0.549893 z" transform="matrix(40,0,0,40,0,-960)"/>
  <path style="stroke:#1f1f1f;stroke-width:1;stroke-miterlimit:3.6;stroke-dasharray:none" d="M 11.765498,11.11027 C 10.751202,10.998644 10.02874,10.011694 9.843327,8.484409 9.7867005,8.0179631 9.7858542,6.7424327 9.841968,6.4358231 c 0.243233,-1.3290436 1.85238,-2.0331219 3.183442,-1.392907 0.472575,0.2272997 0.88388,0.7204497 1.040773,1.2478743 0.13514,0.4543035 0.105178,1.9090121 -0.05558,2.6984239 -0.282963,1.3895087 -1.181225,2.2381387 -2.245106,2.1210557 z" transform="matrix(40,0,0,40,0,-960)"/>
  <path style="stroke:#1f1f1f;stroke-width:1;stroke-miterlimit:3.6;stroke-dasharray:none" d="m 7.7683104,17.539895 c -1.1743273,-0.0077 -1.5137994,-0.01994 -1.5138731,-0.0548 -4.068e-4,-0.192306 0.3116495,-2.194162 0.368734,-2.365447 0.102002,-0.306062 0.2590463,-0.567165 0.4933398,-0.82023 0.2659379,-0.287244 0.6402714,-0.467574 1.8755121,-0.9035 0.9725838,-0.343231 1.3173918,-0.490784 1.4609528,-0.625178 0.159282,-0.149113 0.3058,-0.509962 0.32327,-0.796164 0.0088,-0.144757 0.02194,-0.282201 0.02912,-0.30543 0.009,-0.02923 0.113154,-0.01004 0.338137,0.06231 0.589496,0.189571 1.150277,0.176975 1.762247,-0.03958 0.159884,-0.05658 0.294155,-0.09941 0.29838,-0.09519 0.0042,0.0042 0.02396,0.166789 0.04385,0.361255 0.0429,0.41936 0.154397,0.69535 0.337246,0.834816 0.171501,0.13081 0.371733,0.215081 1.612748,0.678754 0.595066,0.22233 1.159714,0.453488 1.254774,0.513683 0.421235,0.26674 0.820897,0.854714 0.914889,1.345963 0.05729,0.299426 0.253004,1.627158 0.289968,1.967142 l 0.02399,0.220704 -1.096525,0.02404 c -1.01037,0.02215 -5.164997,0.02067 -8.8167646,-0.0031 z" transform="matrix(40,0,0,40,0,-960)"/>
  <rect style="stroke:#1f1f1f;stroke-width:16;stroke-miterlimit:3.6;stroke-dasharray:none" width="13.052937" height="63.814358" x="416.13635" y="-85.894127"/>
  <rect style="stroke:#1f1f1f;stroke-width:16;stroke-miterlimit:3.6;stroke-dasharray:none" width="13.052937" height="63.814358" x="472.27847" y="-85.894127"/>
  <rect style="stroke:#1f1f1f;stroke-width:16;stroke-miterlimit:3.6;stroke-dasharray:none" width="13.052937" height="63.814358" x="528.42059" y="-85.894127"/>
  <rect style="stroke:#1f1f1f;stroke-width:16;stroke-miterlimit:3.6;stroke-dasharray:none" width="13.052937" height="63.814358" x="584.56274" y="-85.894127"/>
  <rect style="stroke:#1f1f1f;stroke-width:16;stroke-miterlimit:3.6;stroke-dasharray:none" width="13.052937" height="63.814358" x="359.9942" y="-85.894127"/>
  <rect style="stroke:#1f1f1f;stroke-width:17.9898;stroke-miterlimit:3.6;stroke-dasharray:none" width="11.063202" height="95.182121" x="97.783844" y="-350.91812"/>
  <rect style="stroke:#1f1f1f;stroke-width:15.3271;stroke-miterlimit:3.6;stroke-dasharray:none" width="8.0125856" height="95.396484" x="176.43462" y="-421.62906" transform="matrix(-0.70710678,-0.70710678,-0.70710678,0.70710678,0,0)"/>
  <ellipse style="stroke:#1f1f1f;stroke-width:16;stroke-miterlimit:3.6;stroke-dasharray:none" cx="183.46629" cy="-439.33286" rx="23.930386" ry="26.105873"/>
</svg>
